<?xml version="1.0" encoding="utf-8"?>
<!-- Designed by Vexels.com - 2016 All Rights Reserved - https://vexels.com/terms-and-conditions/  -->

<svg version="1.1" id="Capa_1" xmlns="http://www.w3.org/2000/svg" xmlns:xlink="http://www.w3.org/1999/xlink" x="0px" y="0px"
	 width="1200px" height="1199.999px" viewBox="0 0 1200 1199.999" enable-background="new 0 0 1200 1199.999" xml:space="preserve">
<g>
	<path fill="#FFFFFF" d="M1044.142,689.157c-3.097,0-6.101,0.367-8.993,1.037c-14.234-28.787-43.894-48.588-78.186-48.588
		c-12.096,0-23.614,2.465-34.084,6.916c-15.766-36.691-52.23-62.391-94.699-62.391c-25.539,0-48.906,9.299-66.911,24.688
		c-6.899-33.322-36.413-58.369-71.781-58.369c-2.724,0-5.411,0.16-8.057,0.449c0.08-1.463,0.132-2.932,0.132-4.412
		c0-42.678-34.594-77.27-77.27-77.27c-28.833,0-53.963,15.805-67.241,39.217c-19.578-21.65-47.885-35.256-79.373-35.256
		c-59.091,0-106.989,47.902-106.989,106.99c0,3.385,0.164,6.73,0.472,10.039c-49.447,2.412-90.077,38.4-99.582,85.645
		c-0.7-0.027-1.399-0.053-2.104-0.053c-28.159,0-50.982,22.826-50.982,50.982h885.271
		C1083.767,706.896,1066.024,689.157,1044.142,689.157z"/>
	<path fill="#E3F4FC" d="M902.555,728.782c-1.318-11.912-11.414-21.176-23.674-21.176c-1.217,0-2.412,0.09-3.582,0.266
		c-6.263-13.693-20.083-23.209-36.128-23.209c-4.699,0-9.207,0.818-13.393,2.318c-9.411-15.664-26.564-26.145-46.167-26.145
		c-3.784,0-7.476,0.395-11.04,1.135c-15.059-28.189-44.771-47.371-78.965-47.371c-14.029,0-27.305,3.232-39.125,8.988
		c-2.647-1.016-5.52-1.574-8.524-1.574c-6.402,0-12.209,2.527-16.491,6.635c-9.305-8.713-21.813-14.049-35.57-14.049
		c-2.958,0-5.862,0.248-8.685,0.725c-15.147-24.078-41.951-40.08-72.496-40.08c-33.09,0-61.789,18.779-76.034,46.26
		c-1.782-0.246-3.603-0.375-5.452-0.375c-21.93,0-39.708,17.779-39.708,39.707c0,2.99,0.334,5.898,0.96,8.699
		c-15.503,4.08-28.052,15.432-33.775,30.191c-1.112-0.094-2.231-0.143-3.362-0.143c-18.291,0-33.69,12.369-38.299,29.197H902.555z"
		/>
</g>
</svg>
